<?xml version="1.0" ?><!DOCTYPE svg  PUBLIC '-//W3C//DTD SVG 1.1//EN'  'http://www.w3.org/Graphics/SVG/1.1/DTD/svg11.dtd'><svg height="100%" style="shape-rendering:geometricPrecision; text-rendering:geometricPrecision; image-rendering:optimizeQuality; fill-rule:evenodd; clip-rule:evenodd" viewBox="0 0 254000 254000" width="100%" xml:space="preserve" xmlns="http://www.w3.org/2000/svg" xmlns:xlink="http://www.w3.org/1999/xlink"><defs><style type="text/css">
   <![CDATA[
    .fil0 {fill:none}
    .fil1 {fill:#FF4141}
   ]]>
  </style></defs><g id="图层_x0020_1"><path class="fil0" d="M216747 0l-179494 0c-20518,0 -37253,16735 -37253,37253l0 179494c0,20518 16735,37253 37253,37253l179494 0c20518,0 37253,-16735 37253,-37253l0 -179494c0,-20518 -16735,-37253 -37253,-37253z"/><path class="fil1" d="M127000 44394c34742,0 62905,28163 62905,62905 0,34741 -62905,102306 -62905,102306 0,0 -62905,-67565 -62905,-102306 0,-34742 28163,-62905 62905,-62905zm0 37912c13172,0 23854,10682 23854,23855 0,13172 -10682,23854 -23854,23854 -13172,0 -23854,-10682 -23854,-23854 0,-13173 10682,-23855 23854,-23855z"/></g></svg>